Coordinates
version=1
nRows=11
nColumns=36
inDegrees=yes

Units are S.I. units (second, meters, Newtons, ...)
If the header above contains a line with 'inDegrees', this indicates whether rotational values are in degrees (yes) or radians (no).

endheader
time	pelvis_tilt	pelvis_list	pelvis_rotation	pelvis_tx	pelvis_ty	pelvis_tz	hip_flexion_r	hip_adduction_r	hip_rotation_r	knee_angle_r	knee_angle_r_beta	ankle_angle_r	subtalar_angle_r	mtp_angle_r	hip_flexion_l	hip_adduction_l	hip_rotation_l	knee_angle_l	knee_angle_l_beta	ankle_angle_l	subtalar_angle_l	mtp_angle_l	lumbar_extension	lumbar_bending	lumbar_rotation	arm_flex_r	arm_add_r	arm_rot_r	elbow_flex_r	pro_sup_r	arm_flex_l	arm_add_l	arm_rot_l	elbow_flex_l	pro_sup_l
      7.86666670	    -33.14805972	     -6.44376741	     16.30339534	      0.65507632	      0.58689866	      0.09512946	    103.61561146	    -22.82348573	      5.28265257	    106.43723715	      1.85768024	     34.59885632	    -14.13827412	     -7.49999987	    104.84495414	    -17.52750364	      1.95130780	    103.39328696	      1.80455328	     28.70324755	      3.21969840	     -7.49999987	    -38.52354495	     -1.92514624	     -3.91034249	     90.41918976	      5.69558525	     65.09975847	    129.78638386	     93.32229619	     93.50605420	      8.83580283	     75.30800319	    126.99391467	     95.38336355
      7.88333330	    -32.84221280	     -6.19428295	     16.39652462	      0.65904833	      0.59145406	      0.09768108	    102.27341771	    -22.87738561	      4.89220724	    105.37113864	      1.83907331	     34.23219128	    -14.68043936	     -7.49999987	    103.37460515	    -17.77989187	      1.28592762	    102.14301617	      1.78273194	     28.38639304	      3.21652413	     -7.49999987	    -38.34676634	     -2.19824584	     -4.04133256	     89.46894099	      5.78101457	     65.21471819	    129.91926930	     92.56485436	     93.05249811	      8.64696551	     75.91768386	    127.52821736	     94.62389909
      7.90000000	    -32.45951744	     -6.05094973	     16.56975541	      0.65052520	      0.59848917	      0.09911427	    101.23147636	    -22.95513278	      4.42411666	    104.23524407	      1.81924821	     33.38155819	    -15.27898946	     -7.49999987	    102.25623537	    -17.77165148	      0.71967061	    100.94031146	      1.76174078	     28.00440931	      3.28047506	     -7.49999987	    -38.08328092	     -2.42327517	     -4.39845504	     89.48198045	      6.44408117	     64.75048900	    129.50079816	     95.02531204	     93.60316359	      8.59285958	     75.73211726	    128.05120864	     96.89563051
      7.91666670	    -32.29357276	     -5.93181401	     16.44688666	      0.65406175	      0.61157337	      0.09439099	    100.20657199	    -23.00455600	      3.90923601	    102.73364422	      1.79304034	     32.56022546	    -15.25751228	     -7.49999987	    100.96463280	    -17.84772759	      0.01273173	     99.45800182	      1.73586960	     27.80317195	      3.42305284	     -7.49999987	    -37.69737536	     -2.58264470	     -4.53182536	     88.87031792	      6.24573059	     64.52558850	    129.71381954	     95.31042119	     93.02553189	      8.68434709	     75.77184716	    128.26063943	     96.76418295
      7.93333330	    -31.97939357	     -5.72244522	     16.52639199	      0.65904457	      0.62566081	      0.09792868	     98.46927061	    -23.05242249	      3.35654880	    100.97267907	      1.76230570	     31.65351210	    -15.33121757	     -7.49999987	     98.81973868	    -18.16254735	     -0.98455053	     97.31945940	      1.69854499	     27.45569833	      3.93216718	     -7.49999987	    -37.48233752	     -2.80467246	     -4.78371890	     88.69818978	      6.52575625	     64.91119267	    129.46606071	     95.00454695	     92.37849005	      8.53322010	     75.95246193	    128.66480341	     96.79146166
      7.95000000	    -31.82080011	     -5.42817476	     16.31646838	      0.66195539	      0.63773000	      0.09586155	     96.66252283	    -22.91568743	      2.75889440	     98.77585522	      1.72396390	     31.23197689	    -15.07485871	     -7.49999987	     96.61507371	    -18.45612476	     -2.11241400	     95.22933436	      1.66206543	     27.71570827	      4.56665052	     -7.49999987	    -37.02799149	     -3.11535383	     -4.83190357	     88.70841197	      6.02480512	     65.55741824	    129.16096203	     93.82890754	     91.49847170	      8.28842462	     76.12610006	    128.83232179	     95.68378472
      7.96666670	    -31.75880011	     -5.11657400	     15.80979784	      0.65935170	      0.64394374	      0.09196550	     95.51641282	    -22.98442483	      2.17647790	     96.87843148	      1.69084760	     30.94721034	    -14.43148021	     -7.49999987	     94.86367124	    -18.66388128	     -2.99490001	     93.58207436	      1.63331532	     28.14268298	      4.72119650	     -7.49999987	    -36.22897253	     -3.48816083	     -4.82079983	     88.42913494	      5.72034225	     65.74844825	    129.22553069	     93.88498096	     90.89161994	      8.29861381	     75.92794485	    128.78937793	     95.72120045
      7.98333330	    -31.42770688	     -4.50310174	     15.45772831	      0.66389403	      0.66447166	      0.09462176	     93.54875038	    -23.01985684	      1.69249076	     94.66728183	      1.65225576	     30.78227455	    -13.01491906	     -7.49999987	     92.22047872	    -18.93974858	     -4.30839357	     91.43509168	      1.59584340	     27.81975729	      5.01244067	     -7.49999987	    -36.22274737	     -4.09043274	     -4.72760077	     88.23197641	      5.40887491	     66.28169041	    129.07813970	     93.47419199	     90.09031912	      8.34811028	     76.09774155	    128.67381159	     95.18302210
      8.00000000	    -30.95839690	     -3.99976774	     15.14678671	      0.67495638	      0.68149584	      0.09279768	     90.73393924	    -23.01372141	      0.79344488	     92.11560879	      1.60772067	     30.28509935	    -12.53424695	     -7.49999987	     89.01912959	    -19.09252203	     -5.52831447	     88.84291863	      1.55060145	     27.62928518	      5.14667227	     -7.49999987	    -35.89580711	     -4.60029812	     -4.35402768	     85.87144011	      5.67256058	     67.48234614	    128.97065513	     93.41248588	     88.21496558	      8.37920463	     77.00975354	    128.66182766	     95.02818359
      8.01666670	    -30.22331606	     -3.38148973	     14.79234937	      0.67370842	      0.68534346	      0.09338413	     88.69453459	    -23.04661957	      0.34152572	     90.63433992	      1.58186765	     30.13588744	    -11.96713322	     -7.49999987	     86.33522382	    -19.37818545	     -6.57827744	     87.27229817	      1.52318895	     27.96780314	      5.45646944	     -7.49999987	    -35.71396753	     -5.32541738	     -4.26688335	     84.94812546	      5.79937171	     67.95774260	    129.04798265	     94.03150485	     87.63273171	      8.21009236	     77.66288926	    128.64664038	     95.39093287
      8.03333330	    -29.88428543	     -3.03765575	     14.46620343	      0.66499797	      0.69456279	      0.09613436	     87.64474332	    -23.00071846	      0.00618811	     89.15099722	      1.55597843	     29.86376660	    -11.52753837	     -7.49999987	     84.72738562	    -19.41170783	     -7.35625728	     85.60911579	      1.49416094	     27.72804410	      5.14067775	     -7.49999987	    -34.89704567	     -5.87778347	     -4.04694591	     84.90649755	      6.36884608	     67.90665748	    128.91331170	     94.19177912	     87.35507297	      8.68239447	     77.79143181	    128.70050183	     95.48666812
